<svg xmlns="http://www.w3.org/2000/svg" viewBox="0 0 64 64" fill="none">
  <rect width="64" height="64" rx="12" fill="#6F4E37"/>
  <path d="M20 25h20v10a7 7 0 0 1-7 7h-6a7 7 0 0 1-7-7V25Z" fill="#FFFFFF"/>
  <path d="M40 28h4a4 4 0 0 1 0 8h-4" stroke="#FFFFFF" stroke-width="3" stroke-linecap="round" stroke-linejoin="round"/>
  <path d="M22 43h20" stroke="#FFFFFF" stroke-width="3" stroke-linecap="round"/>
  <path d="M24 20c0-2 1.2-3.2 1.2-5" stroke="#FFFFFF" stroke-width="2.2" stroke-linecap="round"/>
  <path d="M32 20c0-2 1.2-3.2 1.2-5" stroke="#FFFFFF" stroke-width="2.2" stroke-linecap="round"/>
  <path d="M40 20c0-2 1.2-3.2 1.2-5" stroke="#FFFFFF" stroke-width="2.2" stroke-linecap="round"/>
</svg>
