<svg xmlns="http://www.w3.org/2000/svg" viewBox="0 0 64 64" fill="none">
  <rect width="64" height="64" rx="18" fill="#8e5d38" />
  <path d="M20 24h22v11a10 10 0 0 1-10 10h-2a10 10 0 0 1-10-10V24Z" fill="#f4ece4" opacity="0.95"/>
  <path d="M42 27h4a4 4 0 0 1 0 8h-4" stroke="#f4ece4" stroke-width="4" stroke-linecap="round"/>
  <path d="M18 48h28" stroke="#f4ece4" stroke-width="4" stroke-linecap="round"/>
  <path d="M24 17c0 2 2 2 2 4s-2 2-2 4" stroke="#f4ece4" stroke-width="3" stroke-linecap="round"/>
  <path d="M32 17c0 2 2 2 2 4s-2 2-2 4" stroke="#f4ece4" stroke-width="3" stroke-linecap="round"/>
  <path d="M40 17c0 2 2 2 2 4s-2 2-2 4" stroke="#f4ece4" stroke-width="3" stroke-linecap="round"/>
</svg>
