<svg xmlns="http://www.w3.org/2000/svg" viewBox="0 0 64 64" fill="none">
  <rect width="64" height="64" rx="14" fill="#6F4E37"/>
  <path d="M20 24h18v11a6 6 0 0 1-6 6h-6a6 6 0 0 1-6-6V24Z" fill="#FAF7F2"/>
  <path d="M38 27h4.5a4 4 0 1 1 0 8H38" stroke="#FAF7F2" stroke-width="3.25" stroke-linecap="round" stroke-linejoin="round"/>
  <path d="M20 41h19" stroke="#FAF7F2" stroke-width="3.25" stroke-linecap="round"/>
  <path d="M24 19c0-2 1.5-3 1.5-5M32 19c0-2 1.5-3 1.5-5M40 19c0-2 1.5-3 1.5-5" stroke="#FAF7F2" stroke-width="2.4" stroke-linecap="round"/>
</svg>
